<svg xmlns="http://www.w3.org/2000/svg" version="1.1" xmlns:xlink="http://www.w3.org/1999/xlink" xmlns:svgjs="http://svgjs.dev/svgjs" width="2000" height="1247" viewBox="0 0 2000 1247"><g transform="matrix(1,0,0,1,-1.2121212121212466,0.504858299595071)"><svg viewBox="0 0 396 247" data-background-color="#ffffff" preserveAspectRatio="xMidYMid meet" height="1247" width="2000" xmlns="http://www.w3.org/2000/svg" xmlns:xlink="http://www.w3.org/1999/xlink"><g id="tight-bounds" transform="matrix(1,0,0,1,0.2400000000000091,-0.09999999999999432)"><svg viewBox="0 0 395.52 247.2" height="247.2" width="395.52"><g><svg></svg></g><g><svg viewBox="0 0 395.52 247.2" height="247.2" width="395.52"><g transform="matrix(1,0,0,1,134.4917818181818,47.215199999999996)"><svg viewBox="0 0 126.53643636363637 152.7696" height="152.7696" width="126.53643636363637"><g><svg viewBox="0 0 126.53643636363637 152.7696" height="152.7696" width="126.53643636363637"><g><svg viewBox="0 0 126.53643636363637 152.7696" height="152.7696" width="126.53643636363637"><g><svg viewBox="0 0 126.53643636363637 152.7696" height="152.7696" width="126.53643636363637"><g><svg viewBox="0 0 126.53643636363637 152.7696" height="152.7696" width="126.53643636363637"><g><svg viewBox="0 0 126.53643636363637 152.7696" height="152.7696" width="126.53643636363637"><g transform="matrix(1,0,0,1,0,0)"><svg width="126.53643636363637" viewBox="4.150000095367432 -34.650001525878906 28.69999885559082 34.650001525878906" height="152.7696" data-palette-color="#ca3433"><path d="M32.85 0L27.5 0Q25.8-2.85 23.7-6.13 21.6-9.4 19.35-12.73 17.1-16.05 14.78-19.18 12.45-22.3 10.35-24.8L10.35-24.8 10.35 0 4.15 0 4.15-34.65 9.3-34.65Q11.3-32.55 13.6-29.68 15.9-26.8 18.23-23.7 20.55-20.6 22.73-17.48 24.9-14.35 26.6-11.65L26.6-11.65 26.6-34.65 32.85-34.65 32.85 0Z" opacity="1" transform="matrix(1,0,0,1,0,0)" fill="#ca3433" class="undefined-text-0" data-fill-palette-color="primary" id="text-0"></path></svg></g></svg></g></svg></g></svg></g></svg></g></svg></g></svg></g><path d="M78.727 41.215L78.727 0 325.927 0 325.927 247.2 78.727 247.2 78.727 205.985 92.504 205.985 92.504 233.423 312.15 233.423 312.15 13.777 92.504 13.777 92.504 41.215Z" fill="#ca3433" stroke="transparent" data-fill-palette-color="primary"></path></svg></g><defs></defs></svg><rect width="395.52" height="247.2" fill="none" stroke="none" visibility="hidden"></rect></g></svg></g></svg>